<?xml version="1.0" encoding="utf-8"?>
<svg xmlns="http://www.w3.org/2000/svg" xmlns:xlink="http://www.w3.org/1999/xlink" width="600" height="400" viewBox="0 0 2400 1600">
<defs>
  <clipPath id="clip610">
    <rect x="0" y="0" width="2400" height="1600"/>
  </clipPath>
</defs>
<path clip-path="url(#clip610)" d="
M0 1600 L2400 1600 L2400 0 L0 0  Z
  " fill="#ffffff" fill-rule="evenodd" fill-opacity="1"/>
<defs>
  <clipPath id="clip611">
    <rect x="480" y="0" width="1681" height="1600"/>
  </clipPath>
</defs>
<path clip-path="url(#clip610)" d="
M233.871 1423.18 L2352.76 1423.18 L2352.76 47.2441 L233.871 47.2441  Z
  " fill="#ffffff" fill-rule="evenodd" fill-opacity="1"/>
<defs>
  <clipPath id="clip612">
    <rect x="233" y="47" width="2120" height="1377"/>
  </clipPath>
</defs>
<polyline clip-path="url(#clip612)" style="stroke:#000000; stroke-linecap:butt; stroke-linejoin:round; stroke-width:2; stroke-opacity:0.1; fill:none" points="
  470.585,1423.18 470.585,47.2441 
  "/>
<polyline clip-path="url(#clip612)" style="stroke:#000000; stroke-linecap:butt; stroke-linejoin:round; stroke-width:2; stroke-opacity:0.1; fill:none" points="
  884.443,1423.18 884.443,47.2441 
  "/>
<polyline clip-path="url(#clip612)" style="stroke:#000000; stroke-linecap:butt; stroke-linejoin:round; stroke-width:2; stroke-opacity:0.1; fill:none" points="
  1298.3,1423.18 1298.3,47.2441 
  "/>
<polyline clip-path="url(#clip612)" style="stroke:#000000; stroke-linecap:butt; stroke-linejoin:round; stroke-width:2; stroke-opacity:0.1; fill:none" points="
  1712.16,1423.18 1712.16,47.2441 
  "/>
<polyline clip-path="url(#clip612)" style="stroke:#000000; stroke-linecap:butt; stroke-linejoin:round; stroke-width:2; stroke-opacity:0.1; fill:none" points="
  2126.02,1423.18 2126.02,47.2441 
  "/>
<polyline clip-path="url(#clip610)" style="stroke:#000000; stroke-linecap:butt; stroke-linejoin:round; stroke-width:4; stroke-opacity:1; fill:none" points="
  233.871,1423.18 2352.76,1423.18 
  "/>
<polyline clip-path="url(#clip610)" style="stroke:#000000; stroke-linecap:butt; stroke-linejoin:round; stroke-width:4; stroke-opacity:1; fill:none" points="
  470.585,1423.18 470.585,1404.28 
  "/>
<polyline clip-path="url(#clip610)" style="stroke:#000000; stroke-linecap:butt; stroke-linejoin:round; stroke-width:4; stroke-opacity:1; fill:none" points="
  884.443,1423.18 884.443,1404.28 
  "/>
<polyline clip-path="url(#clip610)" style="stroke:#000000; stroke-linecap:butt; stroke-linejoin:round; stroke-width:4; stroke-opacity:1; fill:none" points="
  1298.3,1423.18 1298.3,1404.28 
  "/>
<polyline clip-path="url(#clip610)" style="stroke:#000000; stroke-linecap:butt; stroke-linejoin:round; stroke-width:4; stroke-opacity:1; fill:none" points="
  1712.16,1423.18 1712.16,1404.28 
  "/>
<polyline clip-path="url(#clip610)" style="stroke:#000000; stroke-linecap:butt; stroke-linejoin:round; stroke-width:4; stroke-opacity:1; fill:none" points="
  2126.02,1423.18 2126.02,1404.28 
  "/>
<path clip-path="url(#clip610)" d="M440.666 1466.44 Q437.518 1466.44 435.666 1468.59 Q433.838 1470.74 433.838 1474.49 Q433.838 1478.22 435.666 1480.39 Q437.518 1482.55 440.666 1482.55 Q443.815 1482.55 445.643 1480.39 Q447.495 1478.22 447.495 1474.49 Q447.495 1470.74 445.643 1468.59 Q443.815 1466.44 440.666 1466.44 M449.949 1451.78 L449.949 1456.04 Q448.19 1455.21 446.384 1454.77 Q444.602 1454.33 442.842 1454.33 Q438.213 1454.33 435.759 1457.45 Q433.329 1460.58 432.981 1466.9 Q434.347 1464.89 436.407 1463.82 Q438.467 1462.73 440.944 1462.73 Q446.153 1462.73 449.162 1465.9 Q452.194 1469.05 452.194 1474.49 Q452.194 1479.82 449.046 1483.03 Q445.898 1486.25 440.666 1486.25 Q434.671 1486.25 431.5 1481.67 Q428.329 1477.06 428.329 1468.33 Q428.329 1460.14 432.217 1455.28 Q436.106 1450.39 442.657 1450.39 Q444.416 1450.39 446.199 1450.74 Q448.004 1451.09 449.949 1451.78 Z" fill="#000000" fill-rule="evenodd" fill-opacity="1" /><path clip-path="url(#clip610)" d="M459.069 1451.02 L481.291 1451.02 L481.291 1453.01 L468.745 1485.58 L463.861 1485.58 L475.666 1454.96 L459.069 1454.96 L459.069 1451.02 Z" fill="#000000" fill-rule="evenodd" fill-opacity="1" /><path clip-path="url(#clip610)" d="M503.259 1455.09 L491.453 1473.54 L503.259 1473.54 L503.259 1455.09 M502.032 1451.02 L507.911 1451.02 L507.911 1473.54 L512.842 1473.54 L512.842 1477.43 L507.911 1477.43 L507.911 1485.58 L503.259 1485.58 L503.259 1477.43 L487.657 1477.43 L487.657 1472.92 L502.032 1451.02 Z" fill="#000000" fill-rule="evenodd" fill-opacity="1" /><path clip-path="url(#clip610)" d="M854.686 1466.44 Q851.538 1466.44 849.686 1468.59 Q847.857 1470.74 847.857 1474.49 Q847.857 1478.22 849.686 1480.39 Q851.538 1482.55 854.686 1482.55 Q857.834 1482.55 859.663 1480.39 Q861.515 1478.22 861.515 1474.49 Q861.515 1470.74 859.663 1468.59 Q857.834 1466.44 854.686 1466.44 M863.968 1451.78 L863.968 1456.04 Q862.209 1455.21 860.404 1454.77 Q858.621 1454.33 856.862 1454.33 Q852.232 1454.33 849.779 1457.45 Q847.348 1460.58 847.001 1466.9 Q848.367 1464.89 850.427 1463.82 Q852.487 1462.73 854.964 1462.73 Q860.172 1462.73 863.181 1465.9 Q866.214 1469.05 866.214 1474.49 Q866.214 1479.82 863.066 1483.03 Q859.918 1486.25 854.686 1486.25 Q848.691 1486.25 845.519 1481.67 Q842.348 1477.06 842.348 1468.33 Q842.348 1460.14 846.237 1455.28 Q850.126 1450.39 856.677 1450.39 Q858.436 1450.39 860.218 1450.74 Q862.024 1451.09 863.968 1451.78 Z" fill="#000000" fill-rule="evenodd" fill-opacity="1" /><path clip-path="url(#clip610)" d="M873.089 1451.02 L895.311 1451.02 L895.311 1453.01 L882.765 1485.58 L877.88 1485.58 L889.686 1454.96 L873.089 1454.96 L873.089 1451.02 Z" fill="#000000" fill-rule="evenodd" fill-opacity="1" /><path clip-path="url(#clip610)" d="M915.01 1466.44 Q911.862 1466.44 910.01 1468.59 Q908.181 1470.74 908.181 1474.49 Q908.181 1478.22 910.01 1480.39 Q911.862 1482.55 915.01 1482.55 Q918.158 1482.55 919.987 1480.39 Q921.838 1478.22 921.838 1474.49 Q921.838 1470.74 919.987 1468.59 Q918.158 1466.44 915.01 1466.44 M924.292 1451.78 L924.292 1456.04 Q922.533 1455.21 920.727 1454.77 Q918.945 1454.33 917.186 1454.33 Q912.556 1454.33 910.102 1457.45 Q907.672 1460.58 907.325 1466.9 Q908.69 1464.89 910.751 1463.82 Q912.811 1462.73 915.288 1462.73 Q920.496 1462.73 923.505 1465.9 Q926.538 1469.05 926.538 1474.49 Q926.538 1479.82 923.389 1483.03 Q920.241 1486.25 915.01 1486.25 Q909.014 1486.25 905.843 1481.67 Q902.672 1477.06 902.672 1468.33 Q902.672 1460.14 906.561 1455.28 Q910.45 1450.39 917.001 1450.39 Q918.76 1450.39 920.542 1450.74 Q922.348 1451.09 924.292 1451.78 Z" fill="#000000" fill-rule="evenodd" fill-opacity="1" /><path clip-path="url(#clip610)" d="M1268.67 1466.44 Q1265.52 1466.44 1263.67 1468.59 Q1261.84 1470.74 1261.84 1474.49 Q1261.84 1478.22 1263.67 1480.39 Q1265.52 1482.55 1268.67 1482.55 Q1271.82 1482.55 1273.65 1480.39 Q1275.5 1478.22 1275.5 1474.49 Q1275.5 1470.74 1273.65 1468.59 Q1271.82 1466.44 1268.67 1466.44 M1277.95 1451.78 L1277.95 1456.04 Q1276.19 1455.21 1274.39 1454.77 Q1272.61 1454.33 1270.85 1454.33 Q1266.22 1454.33 1263.76 1457.45 Q1261.33 1460.58 1260.99 1466.9 Q1262.35 1464.89 1264.41 1463.82 Q1266.47 1462.73 1268.95 1462.73 Q1274.16 1462.73 1277.17 1465.9 Q1280.2 1469.05 1280.2 1474.49 Q1280.2 1479.82 1277.05 1483.03 Q1273.9 1486.25 1268.67 1486.25 Q1262.68 1486.25 1259.5 1481.67 Q1256.33 1477.06 1256.33 1468.33 Q1256.33 1460.14 1260.22 1455.28 Q1264.11 1450.39 1270.66 1450.39 Q1272.42 1450.39 1274.2 1450.74 Q1276.01 1451.09 1277.95 1451.78 Z" fill="#000000" fill-rule="evenodd" fill-opacity="1" /><path clip-path="url(#clip610)" d="M1287.07 1451.02 L1309.3 1451.02 L1309.3 1453.01 L1296.75 1485.58 L1291.87 1485.58 L1303.67 1454.96 L1287.07 1454.96 L1287.07 1451.02 Z" fill="#000000" fill-rule="evenodd" fill-opacity="1" /><path clip-path="url(#clip610)" d="M1328.42 1469.17 Q1325.08 1469.17 1323.16 1470.95 Q1321.26 1472.73 1321.26 1475.86 Q1321.26 1478.98 1323.16 1480.77 Q1325.08 1482.55 1328.42 1482.55 Q1331.75 1482.55 1333.67 1480.77 Q1335.59 1478.96 1335.59 1475.86 Q1335.59 1472.73 1333.67 1470.95 Q1331.77 1469.17 1328.42 1469.17 M1323.74 1467.18 Q1320.73 1466.44 1319.04 1464.38 Q1317.37 1462.32 1317.37 1459.35 Q1317.37 1455.21 1320.31 1452.8 Q1323.28 1450.39 1328.42 1450.39 Q1333.58 1450.39 1336.52 1452.8 Q1339.46 1455.21 1339.46 1459.35 Q1339.46 1462.32 1337.77 1464.38 Q1336.1 1466.44 1333.12 1467.18 Q1336.49 1467.96 1338.37 1470.26 Q1340.27 1472.55 1340.27 1475.86 Q1340.27 1480.88 1337.19 1483.57 Q1334.13 1486.25 1328.42 1486.25 Q1322.7 1486.25 1319.62 1483.57 Q1316.56 1480.88 1316.56 1475.86 Q1316.56 1472.55 1318.46 1470.26 Q1320.36 1467.96 1323.74 1467.18 M1322.03 1459.79 Q1322.03 1462.48 1323.69 1463.98 Q1325.38 1465.49 1328.42 1465.49 Q1331.43 1465.49 1333.12 1463.98 Q1334.83 1462.48 1334.83 1459.79 Q1334.83 1457.11 1333.12 1455.6 Q1331.43 1454.1 1328.42 1454.1 Q1325.38 1454.1 1323.69 1455.6 Q1322.03 1457.11 1322.03 1459.79 Z" fill="#000000" fill-rule="evenodd" fill-opacity="1" /><path clip-path="url(#clip610)" d="M1682.48 1466.44 Q1679.33 1466.44 1677.48 1468.59 Q1675.65 1470.74 1675.65 1474.49 Q1675.65 1478.22 1677.48 1480.39 Q1679.33 1482.55 1682.48 1482.55 Q1685.63 1482.55 1687.46 1480.39 Q1689.31 1478.22 1689.31 1474.49 Q1689.31 1470.74 1687.46 1468.59 Q1685.63 1466.44 1682.48 1466.44 M1691.76 1451.78 L1691.76 1456.04 Q1690.01 1455.21 1688.2 1454.77 Q1686.42 1454.33 1684.66 1454.33 Q1680.03 1454.33 1677.57 1457.45 Q1675.14 1460.58 1674.8 1466.9 Q1676.16 1464.89 1678.22 1463.82 Q1680.28 1462.73 1682.76 1462.73 Q1687.97 1462.73 1690.98 1465.9 Q1694.01 1469.05 1694.01 1474.49 Q1694.01 1479.82 1690.86 1483.03 Q1687.71 1486.25 1682.48 1486.25 Q1676.49 1486.25 1673.32 1481.67 Q1670.14 1477.06 1670.14 1468.33 Q1670.14 1460.14 1674.03 1455.28 Q1677.92 1450.39 1684.47 1450.39 Q1686.23 1450.39 1688.01 1450.74 Q1689.82 1451.09 1691.76 1451.78 Z" fill="#000000" fill-rule="evenodd" fill-opacity="1" /><path clip-path="url(#clip610)" d="M1712.07 1469.17 Q1708.73 1469.17 1706.81 1470.95 Q1704.91 1472.73 1704.91 1475.86 Q1704.91 1478.98 1706.81 1480.77 Q1708.73 1482.55 1712.07 1482.55 Q1715.4 1482.55 1717.32 1480.77 Q1719.24 1478.96 1719.24 1475.86 Q1719.24 1472.73 1717.32 1470.95 Q1715.42 1469.17 1712.07 1469.17 M1707.39 1467.18 Q1704.38 1466.44 1702.69 1464.38 Q1701.02 1462.32 1701.02 1459.35 Q1701.02 1455.21 1703.96 1452.8 Q1706.93 1450.39 1712.07 1450.39 Q1717.23 1450.39 1720.17 1452.8 Q1723.11 1455.21 1723.11 1459.35 Q1723.11 1462.32 1721.42 1464.38 Q1719.75 1466.44 1716.76 1467.18 Q1720.14 1467.96 1722.02 1470.26 Q1723.92 1472.55 1723.92 1475.86 Q1723.92 1480.88 1720.84 1483.57 Q1717.78 1486.25 1712.07 1486.25 Q1706.35 1486.25 1703.27 1483.57 Q1700.21 1480.88 1700.21 1475.86 Q1700.21 1472.55 1702.11 1470.26 Q1704.01 1467.96 1707.39 1467.18 M1705.68 1459.79 Q1705.68 1462.48 1707.34 1463.98 Q1709.03 1465.49 1712.07 1465.49 Q1715.07 1465.49 1716.76 1463.98 Q1718.48 1462.48 1718.48 1459.79 Q1718.48 1457.11 1716.76 1455.6 Q1715.07 1454.1 1712.07 1454.1 Q1709.03 1454.1 1707.34 1455.6 Q1705.68 1457.11 1705.68 1459.79 Z" fill="#000000" fill-rule="evenodd" fill-opacity="1" /><path clip-path="url(#clip610)" d="M1742.23 1454.1 Q1738.62 1454.1 1736.79 1457.66 Q1734.98 1461.2 1734.98 1468.33 Q1734.98 1475.44 1736.79 1479.01 Q1738.62 1482.55 1742.23 1482.55 Q1745.86 1482.55 1747.67 1479.01 Q1749.5 1475.44 1749.5 1468.33 Q1749.5 1461.2 1747.67 1457.66 Q1745.86 1454.1 1742.23 1454.1 M1742.23 1450.39 Q1748.04 1450.39 1751.09 1455 Q1754.17 1459.58 1754.17 1468.33 Q1754.17 1477.06 1751.09 1481.67 Q1748.04 1486.25 1742.23 1486.25 Q1736.42 1486.25 1733.34 1481.67 Q1730.28 1477.06 1730.28 1468.33 Q1730.28 1459.58 1733.34 1455 Q1736.42 1450.39 1742.23 1450.39 Z" fill="#000000" fill-rule="evenodd" fill-opacity="1" /><path clip-path="url(#clip610)" d="M2097.14 1466.44 Q2093.99 1466.44 2092.14 1468.59 Q2090.31 1470.74 2090.31 1474.49 Q2090.31 1478.22 2092.14 1480.39 Q2093.99 1482.55 2097.14 1482.55 Q2100.29 1482.55 2102.12 1480.39 Q2103.97 1478.22 2103.97 1474.49 Q2103.97 1470.74 2102.12 1468.59 Q2100.29 1466.44 2097.14 1466.44 M2106.42 1451.78 L2106.42 1456.04 Q2104.66 1455.21 2102.86 1454.77 Q2101.07 1454.33 2099.31 1454.33 Q2094.68 1454.33 2092.23 1457.45 Q2089.8 1460.58 2089.45 1466.9 Q2090.82 1464.89 2092.88 1463.82 Q2094.94 1462.73 2097.42 1462.73 Q2102.62 1462.73 2105.63 1465.9 Q2108.67 1469.05 2108.67 1474.49 Q2108.67 1479.82 2105.52 1483.03 Q2102.37 1486.25 2097.14 1486.25 Q2091.14 1486.25 2087.97 1481.67 Q2084.8 1477.06 2084.8 1468.33 Q2084.8 1460.14 2088.69 1455.28 Q2092.58 1450.39 2099.13 1450.39 Q2100.89 1450.39 2102.67 1450.74 Q2104.48 1451.09 2106.42 1451.78 Z" fill="#000000" fill-rule="evenodd" fill-opacity="1" /><path clip-path="url(#clip610)" d="M2126.72 1469.17 Q2123.39 1469.17 2121.47 1470.95 Q2119.57 1472.73 2119.57 1475.86 Q2119.57 1478.98 2121.47 1480.77 Q2123.39 1482.55 2126.72 1482.55 Q2130.05 1482.55 2131.98 1480.77 Q2133.9 1478.96 2133.9 1475.86 Q2133.9 1472.73 2131.98 1470.95 Q2130.08 1469.17 2126.72 1469.17 M2122.05 1467.18 Q2119.04 1466.44 2117.35 1464.38 Q2115.68 1462.32 2115.68 1459.35 Q2115.68 1455.21 2118.62 1452.8 Q2121.58 1450.39 2126.72 1450.39 Q2131.88 1450.39 2134.82 1452.8 Q2137.76 1455.21 2137.76 1459.35 Q2137.76 1462.32 2136.07 1464.38 Q2134.41 1466.44 2131.42 1467.18 Q2134.8 1467.96 2136.68 1470.26 Q2138.57 1472.55 2138.57 1475.86 Q2138.57 1480.88 2135.49 1483.57 Q2132.44 1486.25 2126.72 1486.25 Q2121 1486.25 2117.93 1483.57 Q2114.87 1480.88 2114.87 1475.86 Q2114.87 1472.55 2116.77 1470.26 Q2118.67 1467.96 2122.05 1467.18 M2120.33 1459.79 Q2120.33 1462.48 2122 1463.98 Q2123.69 1465.49 2126.72 1465.49 Q2129.73 1465.49 2131.42 1463.98 Q2133.13 1462.48 2133.13 1459.79 Q2133.13 1457.11 2131.42 1455.6 Q2129.73 1454.1 2126.72 1454.1 Q2123.69 1454.1 2122 1455.6 Q2120.33 1457.11 2120.33 1459.79 Z" fill="#000000" fill-rule="evenodd" fill-opacity="1" /><path clip-path="url(#clip610)" d="M2150.91 1481.64 L2167.23 1481.64 L2167.23 1485.58 L2145.29 1485.58 L2145.29 1481.64 Q2147.95 1478.89 2152.53 1474.26 Q2157.14 1469.61 2158.32 1468.27 Q2160.56 1465.74 2161.44 1464.01 Q2162.35 1462.25 2162.35 1460.56 Q2162.35 1457.8 2160.4 1456.07 Q2158.48 1454.33 2155.38 1454.33 Q2153.18 1454.33 2150.73 1455.09 Q2148.3 1455.86 2145.52 1457.41 L2145.52 1452.69 Q2148.34 1451.55 2150.8 1450.97 Q2153.25 1450.39 2155.29 1450.39 Q2160.66 1450.39 2163.85 1453.08 Q2167.05 1455.77 2167.05 1460.26 Q2167.05 1462.39 2166.24 1464.31 Q2165.45 1466.2 2163.34 1468.8 Q2162.76 1469.47 2159.66 1472.69 Q2156.56 1475.88 2150.91 1481.64 Z" fill="#000000" fill-rule="evenodd" fill-opacity="1" /><path clip-path="url(#clip610)" d="M908.093 1520.52 L938.139 1520.52 L938.139 1525.93 L914.522 1525.93 L914.522 1540 L937.152 1540 L937.152 1545.41 L914.522 1545.41 L914.522 1562.63 L938.712 1562.63 L938.712 1568.04 L908.093 1568.04 L908.093 1520.52 Z" fill="#000000" fill-rule="evenodd" fill-opacity="1" /><path clip-path="url(#clip610)" d="M976.779 1539.24 Q978.975 1535.29 982.03 1533.41 Q985.086 1531.54 989.224 1531.54 Q994.794 1531.54 997.817 1535.45 Q1000.84 1539.33 1000.84 1546.53 L1000.84 1568.04 L994.953 1568.04 L994.953 1546.72 Q994.953 1541.59 993.138 1539.11 Q991.324 1536.63 987.6 1536.63 Q983.049 1536.63 980.407 1539.65 Q977.765 1542.68 977.765 1547.9 L977.765 1568.04 L971.877 1568.04 L971.877 1546.72 Q971.877 1541.56 970.063 1539.11 Q968.249 1536.63 964.461 1536.63 Q959.973 1536.63 957.331 1539.68 Q954.69 1542.71 954.69 1547.9 L954.69 1568.04 L948.801 1568.04 L948.801 1532.4 L954.69 1532.4 L954.69 1537.93 Q956.695 1534.66 959.496 1533.1 Q962.297 1531.54 966.148 1531.54 Q970.031 1531.54 972.736 1533.51 Q975.474 1535.48 976.779 1539.24 Z" fill="#000000" fill-rule="evenodd" fill-opacity="1" /><path clip-path="url(#clip610)" d="M1012.52 1532.4 L1018.38 1532.4 L1018.38 1568.04 L1012.52 1568.04 L1012.52 1532.4 M1012.52 1518.52 L1018.38 1518.52 L1018.38 1525.93 L1012.52 1525.93 L1012.52 1518.52 Z" fill="#000000" fill-rule="evenodd" fill-opacity="1" /><path clip-path="url(#clip610)" d="M1053.36 1533.45 L1053.36 1538.98 Q1050.88 1537.71 1048.2 1537.07 Q1045.53 1536.44 1042.66 1536.44 Q1038.3 1536.44 1036.11 1537.77 Q1033.94 1539.11 1033.94 1541.79 Q1033.94 1543.82 1035.5 1545 Q1037.06 1546.15 1041.77 1547.2 L1043.78 1547.64 Q1050.02 1548.98 1052.63 1551.43 Q1055.27 1553.85 1055.27 1558.21 Q1055.27 1563.17 1051.32 1566.07 Q1047.41 1568.97 1040.53 1568.97 Q1037.67 1568.97 1034.55 1568.39 Q1031.46 1567.85 1028.02 1566.74 L1028.02 1560.69 Q1031.27 1562.38 1034.42 1563.24 Q1037.57 1564.07 1040.66 1564.07 Q1044.8 1564.07 1047.02 1562.66 Q1049.25 1561.23 1049.25 1558.65 Q1049.25 1556.27 1047.63 1554.99 Q1046.04 1553.72 1040.59 1552.54 L1038.56 1552.07 Q1033.12 1550.92 1030.7 1548.56 Q1028.28 1546.18 1028.28 1542.04 Q1028.28 1537.01 1031.84 1534.27 Q1035.41 1531.54 1041.96 1531.54 Q1045.21 1531.54 1048.07 1532.01 Q1050.94 1532.49 1053.36 1533.45 Z" fill="#000000" fill-rule="evenodd" fill-opacity="1" /><path clip-path="url(#clip610)" d="M1087.32 1533.45 L1087.32 1538.98 Q1084.84 1537.71 1082.16 1537.07 Q1079.49 1536.44 1076.62 1536.44 Q1072.26 1536.44 1070.07 1537.77 Q1067.9 1539.11 1067.9 1541.79 Q1067.9 1543.82 1069.46 1545 Q1071.02 1546.15 1075.73 1547.2 L1077.74 1547.64 Q1083.98 1548.98 1086.59 1551.43 Q1089.23 1553.85 1089.23 1558.21 Q1089.23 1563.17 1085.28 1566.07 Q1081.37 1568.97 1074.49 1568.97 Q1071.63 1568.97 1068.51 1568.39 Q1065.42 1567.85 1061.98 1566.74 L1061.98 1560.69 Q1065.23 1562.38 1068.38 1563.24 Q1071.53 1564.07 1074.62 1564.07 Q1078.76 1564.07 1080.99 1562.66 Q1083.21 1561.23 1083.21 1558.65 Q1083.21 1556.27 1081.59 1554.99 Q1080 1553.72 1074.56 1552.54 L1072.52 1552.07 Q1067.08 1550.92 1064.66 1548.56 Q1062.24 1546.18 1062.24 1542.04 Q1062.24 1537.01 1065.8 1534.27 Q1069.37 1531.54 1075.92 1531.54 Q1079.17 1531.54 1082.04 1532.01 Q1084.9 1532.49 1087.32 1533.45 Z" fill="#000000" fill-rule="evenodd" fill-opacity="1" /><path clip-path="url(#clip610)" d="M1098.55 1532.4 L1104.41 1532.4 L1104.41 1568.04 L1098.55 1568.04 L1098.55 1532.4 M1098.55 1518.52 L1104.41 1518.52 L1104.41 1525.93 L1098.55 1525.93 L1098.55 1518.52 Z" fill="#000000" fill-rule="evenodd" fill-opacity="1" /><path clip-path="url(#clip610)" d="M1130.48 1536.5 Q1125.77 1536.5 1123.03 1540.19 Q1120.29 1543.85 1120.29 1550.25 Q1120.29 1556.65 1123 1560.34 Q1125.74 1564 1130.48 1564 Q1135.16 1564 1137.89 1560.31 Q1140.63 1556.62 1140.63 1550.25 Q1140.63 1543.92 1137.89 1540.23 Q1135.16 1536.5 1130.48 1536.5 M1130.48 1531.54 Q1138.12 1531.54 1142.48 1536.5 Q1146.84 1541.47 1146.84 1550.25 Q1146.84 1559 1142.48 1564 Q1138.12 1568.97 1130.48 1568.97 Q1122.81 1568.97 1118.45 1564 Q1114.12 1559 1114.12 1550.25 Q1114.12 1541.47 1118.45 1536.5 Q1122.81 1531.54 1130.48 1531.54 Z" fill="#000000" fill-rule="evenodd" fill-opacity="1" /><path clip-path="url(#clip610)" d="M1186.18 1546.53 L1186.18 1568.04 L1180.32 1568.04 L1180.32 1546.72 Q1180.32 1541.66 1178.35 1539.14 Q1176.38 1536.63 1172.43 1536.63 Q1167.69 1536.63 1164.95 1539.65 Q1162.21 1542.68 1162.21 1547.9 L1162.21 1568.04 L1156.32 1568.04 L1156.32 1532.4 L1162.21 1532.4 L1162.21 1537.93 Q1164.31 1534.72 1167.15 1533.13 Q1170.01 1531.54 1173.73 1531.54 Q1179.88 1531.54 1183.03 1535.36 Q1186.18 1539.14 1186.18 1546.53 Z" fill="#000000" fill-rule="evenodd" fill-opacity="1" /><path clip-path="url(#clip610)" d="M1220.59 1533.45 L1220.59 1538.98 Q1218.1 1537.71 1215.43 1537.07 Q1212.76 1536.44 1209.89 1536.44 Q1205.53 1536.44 1203.33 1537.77 Q1201.17 1539.11 1201.17 1541.79 Q1201.17 1543.82 1202.73 1545 Q1204.29 1546.15 1209 1547.2 L1211 1547.64 Q1217.24 1548.98 1219.85 1551.43 Q1222.49 1553.85 1222.49 1558.21 Q1222.49 1563.17 1218.55 1566.07 Q1214.63 1568.97 1207.76 1568.97 Q1204.89 1568.97 1201.77 1568.39 Q1198.69 1567.85 1195.25 1566.74 L1195.25 1560.69 Q1198.5 1562.38 1201.65 1563.24 Q1204.8 1564.07 1207.89 1564.07 Q1212.02 1564.07 1214.25 1562.66 Q1216.48 1561.23 1216.48 1558.65 Q1216.48 1556.27 1214.86 1554.99 Q1213.26 1553.72 1207.82 1552.54 L1205.78 1552.07 Q1200.34 1550.92 1197.92 1548.56 Q1195.5 1546.18 1195.5 1542.04 Q1195.5 1537.01 1199.07 1534.27 Q1202.63 1531.54 1209.19 1531.54 Q1212.44 1531.54 1215.3 1532.01 Q1218.17 1532.49 1220.59 1533.45 Z" fill="#000000" fill-rule="evenodd" fill-opacity="1" /><path clip-path="url(#clip610)" d="M1266.61 1518.58 Q1262.34 1525.9 1260.28 1533.06 Q1258.21 1540.23 1258.21 1547.58 Q1258.21 1554.93 1260.28 1562.16 Q1262.38 1569.35 1266.61 1576.64 L1261.52 1576.64 Q1256.74 1569.16 1254.36 1561.93 Q1252 1554.71 1252 1547.58 Q1252 1540.48 1254.36 1533.29 Q1256.71 1526.09 1261.52 1518.58 L1266.61 1518.58 Z" fill="#000000" fill-rule="evenodd" fill-opacity="1" /><path clip-path="url(#clip610)" d="M1305.73 1539.24 Q1307.92 1535.29 1310.98 1533.41 Q1314.03 1531.54 1318.17 1531.54 Q1323.74 1531.54 1326.77 1535.45 Q1329.79 1539.33 1329.79 1546.53 L1329.79 1568.04 L1323.9 1568.04 L1323.9 1546.72 Q1323.9 1541.59 1322.09 1539.11 Q1320.27 1536.63 1316.55 1536.63 Q1312 1536.63 1309.35 1539.65 Q1306.71 1542.68 1306.71 1547.9 L1306.71 1568.04 L1300.82 1568.04 L1300.82 1546.72 Q1300.82 1541.56 1299.01 1539.11 Q1297.2 1536.63 1293.41 1536.63 Q1288.92 1536.63 1286.28 1539.68 Q1283.64 1542.71 1283.64 1547.9 L1283.64 1568.04 L1277.75 1568.04 L1277.75 1532.4 L1283.64 1532.4 L1283.64 1537.93 Q1285.64 1534.66 1288.44 1533.1 Q1291.24 1531.54 1295.1 1531.54 Q1298.98 1531.54 1301.68 1533.51 Q1304.42 1535.48 1305.73 1539.24 Z" fill="#000000" fill-rule="evenodd" fill-opacity="1" /><path clip-path="url(#clip610)" d="M1341.72 1520.52 L1351.3 1520.52 L1363.43 1552.86 L1375.62 1520.52 L1385.2 1520.52 L1385.2 1568.04 L1378.93 1568.04 L1378.93 1526.32 L1366.68 1558.91 L1360.22 1558.91 L1347.96 1526.32 L1347.96 1568.04 L1341.72 1568.04 L1341.72 1520.52 Z" fill="#000000" fill-rule="evenodd" fill-opacity="1" /><path clip-path="url(#clip610)" d="M1403.5 1522.27 L1403.5 1532.4 L1415.57 1532.4 L1415.57 1536.95 L1403.5 1536.95 L1403.5 1556.3 Q1403.5 1560.66 1404.68 1561.9 Q1405.89 1563.14 1409.55 1563.14 L1415.57 1563.14 L1415.57 1568.04 L1409.55 1568.04 Q1402.77 1568.04 1400.19 1565.53 Q1397.62 1562.98 1397.62 1556.3 L1397.62 1536.95 L1393.32 1536.95 L1393.32 1532.4 L1397.62 1532.4 L1397.62 1522.27 L1403.5 1522.27 Z" fill="#000000" fill-rule="evenodd" fill-opacity="1" /><path clip-path="url(#clip610)" d="M1479.83 1524.18 L1479.83 1530.96 Q1476.58 1527.94 1472.89 1526.44 Q1469.23 1524.95 1465.09 1524.95 Q1456.94 1524.95 1452.62 1529.95 Q1448.29 1534.91 1448.29 1544.33 Q1448.29 1553.72 1452.62 1558.72 Q1456.94 1563.68 1465.09 1563.68 Q1469.23 1563.68 1472.89 1562.19 Q1476.58 1560.69 1479.83 1557.67 L1479.83 1564.38 Q1476.45 1566.68 1472.67 1567.82 Q1468.91 1568.97 1464.71 1568.97 Q1453.92 1568.97 1447.71 1562.38 Q1441.51 1555.76 1441.51 1544.33 Q1441.51 1532.87 1447.71 1526.28 Q1453.92 1519.66 1464.71 1519.66 Q1468.98 1519.66 1472.73 1520.81 Q1476.52 1521.92 1479.83 1524.18 Z" fill="#000000" fill-rule="evenodd" fill-opacity="1" /><path clip-path="url(#clip610)" d="M1509.05 1524.88 Q1502.04 1524.88 1497.91 1530.1 Q1493.8 1535.32 1493.8 1544.33 Q1493.8 1553.31 1497.91 1558.53 Q1502.04 1563.75 1509.05 1563.75 Q1516.05 1563.75 1520.12 1558.53 Q1524.23 1553.31 1524.23 1544.33 Q1524.23 1535.32 1520.12 1530.1 Q1516.05 1524.88 1509.05 1524.88 M1509.05 1519.66 Q1519.04 1519.66 1525.03 1526.38 Q1531.01 1533.06 1531.01 1544.33 Q1531.01 1555.57 1525.03 1562.28 Q1519.04 1568.97 1509.05 1568.97 Q1499.02 1568.97 1493.01 1562.28 Q1487.02 1555.6 1487.02 1544.33 Q1487.02 1533.06 1493.01 1526.38 Q1499.02 1519.66 1509.05 1519.66 Z" fill="#000000" fill-rule="evenodd" fill-opacity="1" /><path clip-path="url(#clip610)" d="M1547.18 1562.63 L1569.62 1562.63 L1569.62 1568.04 L1539.44 1568.04 L1539.44 1562.63 Q1543.1 1558.85 1549.41 1552.48 Q1555.74 1546.08 1557.36 1544.24 Q1560.45 1540.77 1561.66 1538.38 Q1562.9 1535.96 1562.9 1533.64 Q1562.9 1529.85 1560.23 1527.46 Q1557.59 1525.08 1553.32 1525.08 Q1550.3 1525.08 1546.92 1526.13 Q1543.58 1527.18 1539.76 1529.31 L1539.76 1522.82 Q1543.64 1521.26 1547.02 1520.46 Q1550.39 1519.66 1553.19 1519.66 Q1560.58 1519.66 1564.97 1523.36 Q1569.36 1527.05 1569.36 1533.22 Q1569.36 1536.15 1568.25 1538.79 Q1567.17 1541.4 1564.27 1544.97 Q1563.47 1545.89 1559.21 1550.32 Q1554.94 1554.71 1547.18 1562.63 Z" fill="#000000" fill-rule="evenodd" fill-opacity="1" /><path clip-path="url(#clip610)" d="M1582.54 1520.52 L1612.59 1520.52 L1612.59 1525.93 L1588.97 1525.93 L1588.97 1540 L1611.6 1540 L1611.6 1545.41 L1588.97 1545.41 L1588.97 1562.63 L1613.16 1562.63 L1613.16 1568.04 L1582.54 1568.04 L1582.54 1520.52 Z" fill="#000000" fill-rule="evenodd" fill-opacity="1" /><path clip-path="url(#clip610)" d="M1626.97 1550.25 Q1626.97 1556.71 1629.61 1560.4 Q1632.29 1564.07 1636.93 1564.07 Q1641.58 1564.07 1644.25 1560.4 Q1646.93 1556.71 1646.93 1550.25 Q1646.93 1543.79 1644.25 1540.13 Q1641.58 1536.44 1636.93 1536.44 Q1632.29 1536.44 1629.61 1540.13 Q1626.97 1543.79 1626.97 1550.25 M1646.93 1562.7 Q1645.08 1565.88 1642.25 1567.44 Q1639.45 1568.97 1635.5 1568.97 Q1629.04 1568.97 1624.97 1563.81 Q1620.92 1558.65 1620.92 1550.25 Q1620.92 1541.85 1624.97 1536.69 Q1629.04 1531.54 1635.5 1531.54 Q1639.45 1531.54 1642.25 1533.1 Q1645.08 1534.62 1646.93 1537.81 L1646.93 1532.4 L1652.78 1532.4 L1652.78 1581.6 L1646.93 1581.6 L1646.93 1562.7 Z" fill="#000000" fill-rule="evenodd" fill-opacity="1" /><path clip-path="url(#clip610)" d="M1663.92 1518.58 L1669.02 1518.58 Q1673.79 1526.09 1676.15 1533.29 Q1678.53 1540.48 1678.53 1547.58 Q1678.53 1554.71 1676.15 1561.93 Q1673.79 1569.16 1669.02 1576.64 L1663.92 1576.64 Q1668.16 1569.35 1670.23 1562.16 Q1672.33 1554.93 1672.33 1547.58 Q1672.33 1540.23 1670.23 1533.06 Q1668.16 1525.9 1663.92 1518.58 Z" fill="#000000" fill-rule="evenodd" fill-opacity="1" /><polyline clip-path="url(#clip612)" style="stroke:#000000; stroke-linecap:butt; stroke-linejoin:round; stroke-width:2; stroke-opacity:0.1; fill:none" points="
  233.871,1220.81 2352.76,1220.81 
  "/>
<polyline clip-path="url(#clip612)" style="stroke:#000000; stroke-linecap:butt; stroke-linejoin:round; stroke-width:2; stroke-opacity:0.1; fill:none" points="
  233.871,955.61 2352.76,955.61 
  "/>
<polyline clip-path="url(#clip612)" style="stroke:#000000; stroke-linecap:butt; stroke-linejoin:round; stroke-width:2; stroke-opacity:0.1; fill:none" points="
  233.871,690.413 2352.76,690.413 
  "/>
<polyline clip-path="url(#clip612)" style="stroke:#000000; stroke-linecap:butt; stroke-linejoin:round; stroke-width:2; stroke-opacity:0.1; fill:none" points="
  233.871,425.217 2352.76,425.217 
  "/>
<polyline clip-path="url(#clip612)" style="stroke:#000000; stroke-linecap:butt; stroke-linejoin:round; stroke-width:2; stroke-opacity:0.1; fill:none" points="
  233.871,160.02 2352.76,160.02 
  "/>
<polyline clip-path="url(#clip610)" style="stroke:#000000; stroke-linecap:butt; stroke-linejoin:round; stroke-width:4; stroke-opacity:1; fill:none" points="
  233.871,1423.18 233.871,47.2441 
  "/>
<polyline clip-path="url(#clip610)" style="stroke:#000000; stroke-linecap:butt; stroke-linejoin:round; stroke-width:4; stroke-opacity:1; fill:none" points="
  233.871,1220.81 252.768,1220.81 
  "/>
<polyline clip-path="url(#clip610)" style="stroke:#000000; stroke-linecap:butt; stroke-linejoin:round; stroke-width:4; stroke-opacity:1; fill:none" points="
  233.871,955.61 252.768,955.61 
  "/>
<polyline clip-path="url(#clip610)" style="stroke:#000000; stroke-linecap:butt; stroke-linejoin:round; stroke-width:4; stroke-opacity:1; fill:none" points="
  233.871,690.413 252.768,690.413 
  "/>
<polyline clip-path="url(#clip610)" style="stroke:#000000; stroke-linecap:butt; stroke-linejoin:round; stroke-width:4; stroke-opacity:1; fill:none" points="
  233.871,425.217 252.768,425.217 
  "/>
<polyline clip-path="url(#clip610)" style="stroke:#000000; stroke-linecap:butt; stroke-linejoin:round; stroke-width:4; stroke-opacity:1; fill:none" points="
  233.871,160.02 252.768,160.02 
  "/>
<path clip-path="url(#clip610)" d="M115.07 1203.53 L137.292 1203.53 L137.292 1205.52 L124.746 1238.09 L119.862 1238.09 L131.667 1207.46 L115.07 1207.46 L115.07 1203.53 Z" fill="#000000" fill-rule="evenodd" fill-opacity="1" /><path clip-path="url(#clip610)" d="M156.413 1221.67 Q153.079 1221.67 151.158 1223.46 Q149.26 1225.24 149.26 1228.36 Q149.26 1231.49 151.158 1233.27 Q153.079 1235.05 156.413 1235.05 Q159.746 1235.05 161.667 1233.27 Q163.589 1231.47 163.589 1228.36 Q163.589 1225.24 161.667 1223.46 Q159.769 1221.67 156.413 1221.67 M151.737 1219.68 Q148.728 1218.94 147.038 1216.88 Q145.371 1214.82 145.371 1211.86 Q145.371 1207.72 148.311 1205.31 Q151.274 1202.9 156.413 1202.9 Q161.575 1202.9 164.515 1205.31 Q167.454 1207.72 167.454 1211.86 Q167.454 1214.82 165.765 1216.88 Q164.098 1218.94 161.112 1219.68 Q164.491 1220.47 166.366 1222.76 Q168.264 1225.05 168.264 1228.36 Q168.264 1233.39 165.186 1236.07 Q162.13 1238.76 156.413 1238.76 Q150.695 1238.76 147.616 1236.07 Q144.561 1233.39 144.561 1228.36 Q144.561 1225.05 146.459 1222.76 Q148.357 1220.47 151.737 1219.68 M150.024 1212.3 Q150.024 1214.98 151.691 1216.49 Q153.38 1217.99 156.413 1217.99 Q159.422 1217.99 161.112 1216.49 Q162.825 1214.98 162.825 1212.3 Q162.825 1209.61 161.112 1208.11 Q159.422 1206.6 156.413 1206.6 Q153.38 1206.6 151.691 1208.11 Q150.024 1209.61 150.024 1212.3 Z" fill="#000000" fill-rule="evenodd" fill-opacity="1" /><path clip-path="url(#clip610)" d="M190.741 1219.45 Q194.098 1220.17 195.973 1222.44 Q197.871 1224.71 197.871 1228.04 Q197.871 1233.16 194.352 1235.96 Q190.834 1238.76 184.352 1238.76 Q182.176 1238.76 179.862 1238.32 Q177.57 1237.9 175.116 1237.04 L175.116 1232.53 Q177.061 1233.67 179.376 1234.24 Q181.69 1234.82 184.213 1234.82 Q188.612 1234.82 190.903 1233.09 Q193.218 1231.35 193.218 1228.04 Q193.218 1224.98 191.065 1223.27 Q188.936 1221.54 185.116 1221.54 L181.089 1221.54 L181.089 1217.69 L185.301 1217.69 Q188.75 1217.69 190.579 1216.33 Q192.408 1214.94 192.408 1212.35 Q192.408 1209.68 190.51 1208.27 Q188.635 1206.84 185.116 1206.84 Q183.195 1206.84 180.996 1207.25 Q178.797 1207.67 176.158 1208.55 L176.158 1204.38 Q178.82 1203.64 181.135 1203.27 Q183.473 1202.9 185.533 1202.9 Q190.857 1202.9 193.959 1205.33 Q197.061 1207.74 197.061 1211.86 Q197.061 1214.73 195.417 1216.72 Q193.774 1218.69 190.741 1219.45 Z" fill="#000000" fill-rule="evenodd" fill-opacity="1" /><path clip-path="url(#clip610)" d="M114.26 938.33 L136.482 938.33 L136.482 940.321 L123.936 972.89 L119.052 972.89 L130.857 942.265 L114.26 942.265 L114.26 938.33 Z" fill="#000000" fill-rule="evenodd" fill-opacity="1" /><path clip-path="url(#clip610)" d="M155.603 956.478 Q152.269 956.478 150.348 958.26 Q148.45 960.043 148.45 963.168 Q148.45 966.293 150.348 968.075 Q152.269 969.857 155.603 969.857 Q158.936 969.857 160.857 968.075 Q162.778 966.269 162.778 963.168 Q162.778 960.043 160.857 958.26 Q158.959 956.478 155.603 956.478 M150.927 954.487 Q147.917 953.746 146.228 951.686 Q144.561 949.626 144.561 946.663 Q144.561 942.52 147.501 940.112 Q150.464 937.705 155.603 937.705 Q160.765 937.705 163.704 940.112 Q166.644 942.52 166.644 946.663 Q166.644 949.626 164.954 951.686 Q163.288 953.746 160.302 954.487 Q163.681 955.274 165.556 957.566 Q167.454 959.857 167.454 963.168 Q167.454 968.191 164.376 970.876 Q161.32 973.561 155.603 973.561 Q149.885 973.561 146.806 970.876 Q143.751 968.191 143.751 963.168 Q143.751 959.857 145.649 957.566 Q147.547 955.274 150.927 954.487 M149.214 947.103 Q149.214 949.788 150.88 951.293 Q152.57 952.797 155.603 952.797 Q158.612 952.797 160.302 951.293 Q162.015 949.788 162.015 947.103 Q162.015 944.418 160.302 942.913 Q158.612 941.409 155.603 941.409 Q152.57 941.409 150.88 942.913 Q149.214 944.418 149.214 947.103 Z" fill="#000000" fill-rule="evenodd" fill-opacity="1" /><path clip-path="url(#clip610)" d="M186.343 953.746 Q183.195 953.746 181.343 955.899 Q179.514 958.052 179.514 961.802 Q179.514 965.529 181.343 967.705 Q183.195 969.857 186.343 969.857 Q189.491 969.857 191.32 967.705 Q193.172 965.529 193.172 961.802 Q193.172 958.052 191.32 955.899 Q189.491 953.746 186.343 953.746 M195.625 939.094 L195.625 943.353 Q193.866 942.52 192.061 942.08 Q190.278 941.64 188.519 941.64 Q183.889 941.64 181.436 944.765 Q179.005 947.89 178.658 954.209 Q180.024 952.195 182.084 951.131 Q184.144 950.043 186.621 950.043 Q191.829 950.043 194.838 953.214 Q197.871 956.362 197.871 961.802 Q197.871 967.126 194.723 970.344 Q191.575 973.561 186.343 973.561 Q180.348 973.561 177.176 968.978 Q174.005 964.371 174.005 955.645 Q174.005 947.45 177.894 942.589 Q181.783 937.705 188.334 937.705 Q190.093 937.705 191.875 938.052 Q193.681 938.399 195.625 939.094 Z" fill="#000000" fill-rule="evenodd" fill-opacity="1" /><path clip-path="url(#clip610)" d="M114.607 673.133 L136.829 673.133 L136.829 675.124 L124.283 707.693 L119.399 707.693 L131.205 677.069 L114.607 677.069 L114.607 673.133 Z" fill="#000000" fill-rule="evenodd" fill-opacity="1" /><path clip-path="url(#clip610)" d="M155.95 691.281 Q152.616 691.281 150.695 693.064 Q148.797 694.846 148.797 697.971 Q148.797 701.096 150.695 702.879 Q152.616 704.661 155.95 704.661 Q159.283 704.661 161.204 702.879 Q163.126 701.073 163.126 697.971 Q163.126 694.846 161.204 693.064 Q159.306 691.281 155.95 691.281 M151.274 689.291 Q148.265 688.55 146.575 686.49 Q144.908 684.43 144.908 681.467 Q144.908 677.323 147.848 674.916 Q150.811 672.508 155.95 672.508 Q161.112 672.508 164.052 674.916 Q166.991 677.323 166.991 681.467 Q166.991 684.43 165.302 686.49 Q163.635 688.55 160.649 689.291 Q164.028 690.078 165.903 692.369 Q167.802 694.661 167.802 697.971 Q167.802 702.994 164.723 705.68 Q161.667 708.365 155.95 708.365 Q150.232 708.365 147.153 705.68 Q144.098 702.994 144.098 697.971 Q144.098 694.661 145.996 692.369 Q147.894 690.078 151.274 689.291 M149.561 681.906 Q149.561 684.592 151.228 686.096 Q152.917 687.601 155.95 687.601 Q158.959 687.601 160.649 686.096 Q162.362 684.592 162.362 681.906 Q162.362 679.221 160.649 677.717 Q158.959 676.212 155.95 676.212 Q152.917 676.212 151.228 677.717 Q149.561 679.221 149.561 681.906 Z" fill="#000000" fill-rule="evenodd" fill-opacity="1" /><path clip-path="url(#clip610)" d="M176.251 706.976 L176.251 702.717 Q178.01 703.55 179.815 703.99 Q181.621 704.43 183.357 704.43 Q187.987 704.43 190.417 701.328 Q192.871 698.203 193.218 691.86 Q191.875 693.851 189.815 694.916 Q187.755 695.98 185.255 695.98 Q180.07 695.98 177.038 692.855 Q174.028 689.707 174.028 684.268 Q174.028 678.944 177.176 675.726 Q180.325 672.508 185.556 672.508 Q191.551 672.508 194.7 677.115 Q197.871 681.698 197.871 690.448 Q197.871 698.619 193.982 703.504 Q190.116 708.365 183.565 708.365 Q181.806 708.365 180.001 708.017 Q178.195 707.67 176.251 706.976 M185.556 692.323 Q188.704 692.323 190.533 690.17 Q192.385 688.018 192.385 684.268 Q192.385 680.541 190.533 678.388 Q188.704 676.212 185.556 676.212 Q182.408 676.212 180.556 678.388 Q178.727 680.541 178.727 684.268 Q178.727 688.018 180.556 690.17 Q182.408 692.323 185.556 692.323 Z" fill="#000000" fill-rule="evenodd" fill-opacity="1" /><path clip-path="url(#clip610)" d="M116.019 407.937 L138.242 407.937 L138.242 409.928 L125.695 442.497 L120.811 442.497 L132.617 411.872 L116.019 411.872 L116.019 407.937 Z" fill="#000000" fill-rule="evenodd" fill-opacity="1" /><path clip-path="url(#clip610)" d="M147.501 441.779 L147.501 437.52 Q149.26 438.353 151.066 438.793 Q152.871 439.233 154.607 439.233 Q159.237 439.233 161.667 436.131 Q164.121 433.006 164.468 426.664 Q163.126 428.654 161.065 429.719 Q159.005 430.784 156.505 430.784 Q151.32 430.784 148.288 427.659 Q145.279 424.511 145.279 419.071 Q145.279 413.747 148.427 410.53 Q151.575 407.312 156.806 407.312 Q162.802 407.312 165.95 411.918 Q169.121 416.502 169.121 425.252 Q169.121 433.423 165.232 438.307 Q161.366 443.168 154.815 443.168 Q153.056 443.168 151.251 442.821 Q149.445 442.474 147.501 441.779 M156.806 427.127 Q159.954 427.127 161.783 424.974 Q163.635 422.821 163.635 419.071 Q163.635 415.344 161.783 413.192 Q159.954 411.016 156.806 411.016 Q153.658 411.016 151.806 413.192 Q149.978 415.344 149.978 419.071 Q149.978 422.821 151.806 424.974 Q153.658 427.127 156.806 427.127 Z" fill="#000000" fill-rule="evenodd" fill-opacity="1" /><path clip-path="url(#clip610)" d="M181.551 438.562 L197.871 438.562 L197.871 442.497 L175.926 442.497 L175.926 438.562 Q178.589 435.807 183.172 431.178 Q187.778 426.525 188.959 425.182 Q191.204 422.659 192.084 420.923 Q192.987 419.164 192.987 417.474 Q192.987 414.719 191.042 412.983 Q189.121 411.247 186.019 411.247 Q183.82 411.247 181.366 412.011 Q178.936 412.775 176.158 414.326 L176.158 409.604 Q178.982 408.469 181.436 407.891 Q183.889 407.312 185.926 407.312 Q191.297 407.312 194.491 409.997 Q197.686 412.682 197.686 417.173 Q197.686 419.303 196.875 421.224 Q196.088 423.122 193.982 425.715 Q193.403 426.386 190.301 429.603 Q187.2 432.798 181.551 438.562 Z" fill="#000000" fill-rule="evenodd" fill-opacity="1" /><path clip-path="url(#clip610)" d="M115.418 142.74 L137.64 142.74 L137.64 144.731 L125.093 177.3 L120.209 177.3 L132.015 146.676 L115.418 146.676 L115.418 142.74 Z" fill="#000000" fill-rule="evenodd" fill-opacity="1" /><path clip-path="url(#clip610)" d="M146.899 176.583 L146.899 172.324 Q148.658 173.157 150.464 173.597 Q152.269 174.037 154.005 174.037 Q158.635 174.037 161.065 170.935 Q163.519 167.81 163.866 161.467 Q162.524 163.458 160.464 164.523 Q158.403 165.588 155.903 165.588 Q150.718 165.588 147.686 162.463 Q144.677 159.314 144.677 153.875 Q144.677 148.551 147.825 145.333 Q150.973 142.115 156.204 142.115 Q162.2 142.115 165.348 146.722 Q168.519 151.305 168.519 160.055 Q168.519 168.226 164.63 173.111 Q160.765 177.972 154.214 177.972 Q152.454 177.972 150.649 177.625 Q148.843 177.277 146.899 176.583 M156.204 161.93 Q159.353 161.93 161.181 159.777 Q163.033 157.625 163.033 153.875 Q163.033 150.148 161.181 147.995 Q159.353 145.819 156.204 145.819 Q153.056 145.819 151.204 147.995 Q149.376 150.148 149.376 153.875 Q149.376 157.625 151.204 159.777 Q153.056 161.93 156.204 161.93 Z" fill="#000000" fill-rule="evenodd" fill-opacity="1" /><path clip-path="url(#clip610)" d="M176.968 142.74 L195.325 142.74 L195.325 146.676 L181.251 146.676 L181.251 155.148 Q182.269 154.801 183.288 154.639 Q184.306 154.453 185.325 154.453 Q191.112 154.453 194.491 157.625 Q197.871 160.796 197.871 166.213 Q197.871 171.791 194.399 174.893 Q190.926 177.972 184.607 177.972 Q182.431 177.972 180.163 177.601 Q177.917 177.231 175.51 176.49 L175.51 171.791 Q177.593 172.926 179.815 173.481 Q182.038 174.037 184.514 174.037 Q188.519 174.037 190.857 171.93 Q193.195 169.824 193.195 166.213 Q193.195 162.601 190.857 160.495 Q188.519 158.389 184.514 158.389 Q182.639 158.389 180.764 158.805 Q178.913 159.222 176.968 160.102 L176.968 142.74 Z" fill="#000000" fill-rule="evenodd" fill-opacity="1" /><path clip-path="url(#clip610)" d="M20.1444 1115.09 L26.9239 1115.09 Q23.9002 1118.33 22.4043 1122.02 Q20.9083 1125.68 20.9083 1129.82 Q20.9083 1137.97 25.9054 1142.3 Q30.8707 1146.63 40.2919 1146.63 Q49.6813 1146.63 54.6784 1142.3 Q59.6436 1137.97 59.6436 1129.82 Q59.6436 1125.68 58.1477 1122.02 Q56.6518 1118.33 53.6281 1115.09 L60.3439 1115.09 Q62.6355 1118.46 63.7814 1122.25 Q64.9272 1126 64.9272 1130.2 Q64.9272 1140.99 58.3387 1147.2 Q51.7183 1153.41 40.2919 1153.41 Q28.8336 1153.41 22.2451 1147.2 Q15.6248 1140.99 15.6248 1130.2 Q15.6248 1125.94 16.7706 1122.18 Q17.8846 1118.4 20.1444 1115.09 Z" fill="#000000" fill-rule="evenodd" fill-opacity="1" /><path clip-path="url(#clip610)" d="M32.4621 1091.6 Q32.4621 1096.31 36.1542 1099.04 Q39.8145 1101.78 46.212 1101.78 Q52.6095 1101.78 56.3017 1099.08 Q59.9619 1096.34 59.9619 1091.6 Q59.9619 1086.92 56.2698 1084.18 Q52.5777 1081.44 46.212 1081.44 Q39.8781 1081.44 36.186 1084.18 Q32.4621 1086.92 32.4621 1091.6 M27.4968 1091.6 Q27.4968 1083.96 32.4621 1079.6 Q37.4273 1075.24 46.212 1075.24 Q54.9649 1075.24 59.9619 1079.6 Q64.9272 1083.96 64.9272 1091.6 Q64.9272 1099.27 59.9619 1103.63 Q54.9649 1107.96 46.212 1107.96 Q37.4273 1107.96 32.4621 1103.63 Q27.4968 1099.27 27.4968 1091.6 Z" fill="#000000" fill-rule="evenodd" fill-opacity="1" /><path clip-path="url(#clip610)" d="M29.4065 1042.8 L34.9447 1042.8 Q33.6716 1045.29 33.035 1047.96 Q32.3984 1050.63 32.3984 1053.5 Q32.3984 1057.86 33.7352 1060.05 Q35.072 1062.22 37.7456 1062.22 Q39.7826 1062.22 40.9603 1060.66 Q42.1061 1059.1 43.1565 1054.39 L43.6021 1052.38 Q44.9389 1046.14 47.3897 1043.53 Q49.8086 1040.89 54.1691 1040.89 Q59.1344 1040.89 62.0308 1044.84 Q64.9272 1048.75 64.9272 1055.63 Q64.9272 1058.49 64.3543 1061.61 Q63.8132 1064.7 62.6992 1068.14 L56.6518 1068.14 Q58.3387 1064.89 59.198 1061.74 Q60.0256 1058.59 60.0256 1055.5 Q60.0256 1051.36 58.6251 1049.14 Q57.1929 1046.91 54.6147 1046.91 Q52.2276 1046.91 50.9545 1048.53 Q49.6813 1050.12 48.5037 1055.57 L48.0262 1057.6 Q46.8804 1063.05 44.5251 1065.46 Q42.138 1067.88 38.0002 1067.88 Q32.9713 1067.88 30.2341 1064.32 Q27.4968 1060.75 27.4968 1054.2 Q27.4968 1050.95 27.9743 1048.09 Q28.4517 1045.22 29.4065 1042.8 Z" fill="#000000" fill-rule="evenodd" fill-opacity="1" /><path clip-path="url(#clip610)" d="M18.2347 1025.77 L28.3562 1025.77 L28.3562 1013.71 L32.9077 1013.71 L32.9077 1025.77 L52.2594 1025.77 Q56.6199 1025.77 57.8613 1024.6 Q59.1026 1023.39 59.1026 1019.73 L59.1026 1013.71 L64.0042 1013.71 L64.0042 1019.73 Q64.0042 1026.51 61.4897 1029.08 Q58.9434 1031.66 52.2594 1031.66 L32.9077 1031.66 L32.9077 1035.96 L28.3562 1035.96 L28.3562 1031.66 L18.2347 1031.66 L18.2347 1025.77 Z" fill="#000000" fill-rule="evenodd" fill-opacity="1" /><path clip-path="url(#clip610)" d="M32.4621 971.475 Q32.4621 976.186 36.1542 978.923 Q39.8145 981.66 46.212 981.66 Q52.6095 981.66 56.3017 978.955 Q59.9619 976.218 59.9619 971.475 Q59.9619 966.796 56.2698 964.059 Q52.5777 961.322 46.212 961.322 Q39.8781 961.322 36.186 964.059 Q32.4621 966.796 32.4621 971.475 M27.4968 971.475 Q27.4968 963.836 32.4621 959.476 Q37.4273 955.115 46.212 955.115 Q54.9649 955.115 59.9619 959.476 Q64.9272 963.836 64.9272 971.475 Q64.9272 979.146 59.9619 983.506 Q54.9649 987.835 46.212 987.835 Q37.4273 987.835 32.4621 983.506 Q27.4968 979.146 27.4968 971.475 Z" fill="#000000" fill-rule="evenodd" fill-opacity="1" /><path clip-path="url(#clip610)" d="M14.479 927.361 L19.3487 927.361 L19.3487 932.963 Q19.3487 936.114 20.6219 937.355 Q21.895 938.564 25.2052 938.564 L28.3562 938.564 L28.3562 928.92 L32.9077 928.92 L32.9077 938.564 L64.0042 938.564 L64.0042 944.453 L32.9077 944.453 L32.9077 950.055 L28.3562 950.055 L28.3562 944.453 L25.8736 944.453 Q19.9216 944.453 17.2162 941.684 Q14.479 938.915 14.479 932.899 L14.479 927.361 Z" fill="#000000" fill-rule="evenodd" fill-opacity="1" /><path clip-path="url(#clip610)" d="M16.4842 901.484 L16.4842 892.827 L56.238 871.756 L16.4842 871.756 L16.4842 865.518 L64.0042 865.518 L64.0042 874.175 L24.2503 895.246 L64.0042 895.246 L64.0042 901.484 L16.4842 901.484 Z" fill="#000000" fill-rule="evenodd" fill-opacity="1" /><path clip-path="url(#clip610)" d="M46.0847 836.777 Q46.0847 843.875 47.7079 846.612 Q49.3312 849.349 53.2461 849.349 Q56.3653 849.349 58.2114 847.312 Q60.0256 845.243 60.0256 841.71 Q60.0256 836.84 56.5881 833.912 Q53.1188 830.952 47.3897 830.952 L46.0847 830.952 L46.0847 836.777 M43.6657 825.096 L64.0042 825.096 L64.0042 830.952 L58.5933 830.952 Q61.8398 832.957 63.3994 835.949 Q64.9272 838.941 64.9272 843.27 Q64.9272 848.744 61.8716 851.991 Q58.7843 855.206 53.6281 855.206 Q47.6125 855.206 44.5569 851.195 Q41.5014 847.153 41.5014 839.164 L41.5014 830.952 L40.9285 830.952 Q36.8862 830.952 34.6901 833.626 Q32.4621 836.268 32.4621 841.074 Q32.4621 844.129 33.1941 847.026 Q33.9262 849.922 35.3903 852.596 L29.9795 852.596 Q28.7381 849.381 28.1334 846.357 Q27.4968 843.333 27.4968 840.469 Q27.4968 832.735 31.5072 828.915 Q35.5176 825.096 43.6657 825.096 Z" fill="#000000" fill-rule="evenodd" fill-opacity="1" /><path clip-path="url(#clip610)" d="M18.2347 807.24 L28.3562 807.24 L28.3562 795.177 L32.9077 795.177 L32.9077 807.24 L52.2594 807.24 Q56.6199 807.24 57.8613 806.062 Q59.1026 804.853 59.1026 801.193 L59.1026 795.177 L64.0042 795.177 L64.0042 801.193 Q64.0042 807.972 61.4897 810.55 Q58.9434 813.128 52.2594 813.128 L32.9077 813.128 L32.9077 817.425 L28.3562 817.425 L28.3562 813.128 L18.2347 813.128 L18.2347 807.24 Z" fill="#000000" fill-rule="evenodd" fill-opacity="1" /><path clip-path="url(#clip610)" d="M49.9359 788.079 L28.3562 788.079 L28.3562 782.223 L49.7131 782.223 Q54.7739 782.223 57.3202 780.249 Q59.8346 778.276 59.8346 774.329 Q59.8346 769.587 56.8109 766.85 Q53.7872 764.08 48.5673 764.08 L28.3562 764.08 L28.3562 758.224 L64.0042 758.224 L64.0042 764.08 L58.5296 764.08 Q61.7762 766.213 63.3676 769.046 Q64.9272 771.847 64.9272 775.571 Q64.9272 781.713 61.1078 784.896 Q57.2883 788.079 49.9359 788.079 M27.4968 773.343 L27.4968 773.343 Z" fill="#000000" fill-rule="evenodd" fill-opacity="1" /><path clip-path="url(#clip610)" d="M33.8307 725.504 Q33.2578 726.491 33.0032 727.669 Q32.7167 728.814 32.7167 730.215 Q32.7167 735.18 35.9632 737.854 Q39.1779 740.496 45.2253 740.496 L64.0042 740.496 L64.0042 746.384 L28.3562 746.384 L28.3562 740.496 L33.8944 740.496 Q30.6479 738.649 29.0883 735.689 Q27.4968 732.729 27.4968 728.496 Q27.4968 727.891 27.5923 727.159 Q27.656 726.427 27.8151 725.536 L33.8307 725.504 Z" fill="#000000" fill-rule="evenodd" fill-opacity="1" /><path clip-path="url(#clip610)" d="M46.0847 703.161 Q46.0847 710.258 47.7079 712.996 Q49.3312 715.733 53.2461 715.733 Q56.3653 715.733 58.2114 713.696 Q60.0256 711.627 60.0256 708.094 Q60.0256 703.224 56.5881 700.296 Q53.1188 697.336 47.3897 697.336 L46.0847 697.336 L46.0847 703.161 M43.6657 691.48 L64.0042 691.48 L64.0042 697.336 L58.5933 697.336 Q61.8398 699.341 63.3994 702.333 Q64.9272 705.325 64.9272 709.654 Q64.9272 715.128 61.8716 718.375 Q58.7843 721.589 53.6281 721.589 Q47.6125 721.589 44.5569 717.579 Q41.5014 713.537 41.5014 705.548 L41.5014 697.336 L40.9285 697.336 Q36.8862 697.336 34.6901 700.01 Q32.4621 702.651 32.4621 707.457 Q32.4621 710.513 33.1941 713.409 Q33.9262 716.306 35.3903 718.979 L29.9795 718.979 Q28.7381 715.765 28.1334 712.741 Q27.4968 709.717 27.4968 706.853 Q27.4968 699.118 31.5072 695.299 Q35.5176 691.48 43.6657 691.48 Z" fill="#000000" fill-rule="evenodd" fill-opacity="1" /><path clip-path="url(#clip610)" d="M14.479 679.417 L14.479 673.56 L64.0042 673.56 L64.0042 679.417 L14.479 679.417 Z" fill="#000000" fill-rule="evenodd" fill-opacity="1" /><path clip-path="url(#clip610)" d="M41.7242 617.797 Q42.4244 615.728 44.7161 613.786 Q47.0077 611.813 51.0181 609.839 L64.0042 603.315 L64.0042 610.221 L51.8138 616.301 Q47.0395 618.656 45.48 620.884 Q43.9204 623.08 43.9204 626.899 L43.9204 633.902 L64.0042 633.902 L64.0042 640.331 L16.4842 640.331 L16.4842 625.817 Q16.4842 617.669 19.8898 613.659 Q23.2955 609.648 30.1704 609.648 Q34.6582 609.648 37.6183 611.749 Q40.5784 613.818 41.7242 617.797 M21.7677 633.902 L38.6368 633.902 L38.6368 625.817 Q38.6368 621.17 36.5043 618.815 Q34.34 616.428 30.1704 616.428 Q26.0009 616.428 23.9002 618.815 Q21.7677 621.17 21.7677 625.817 L21.7677 633.902 Z" fill="#000000" fill-rule="evenodd" fill-opacity="1" /><path clip-path="url(#clip610)" d="M44.7161 567.73 L47.5806 567.73 L47.5806 594.657 Q53.6281 594.275 56.8109 591.029 Q59.9619 587.75 59.9619 581.926 Q59.9619 578.552 59.1344 575.401 Q58.3069 572.218 56.6518 569.099 L62.1899 569.099 Q63.5267 572.25 64.227 575.56 Q64.9272 578.87 64.9272 582.276 Q64.9272 590.806 59.9619 595.803 Q54.9967 600.768 46.5303 600.768 Q37.7774 600.768 32.6531 596.058 Q27.4968 591.315 27.4968 583.294 Q27.4968 576.101 32.1438 571.932 Q36.7589 567.73 44.7161 567.73 M42.9973 573.587 Q38.1912 573.65 35.3266 576.292 Q32.4621 578.902 32.4621 583.231 Q32.4621 588.132 35.2312 591.092 Q38.0002 594.021 43.0292 594.466 L42.9973 573.587 Z" fill="#000000" fill-rule="evenodd" fill-opacity="1" /><path clip-path="url(#clip610)" d="M29.4065 535.392 L34.9447 535.392 Q33.6716 537.875 33.035 540.549 Q32.3984 543.222 32.3984 546.087 Q32.3984 550.447 33.7352 552.644 Q35.072 554.808 37.7456 554.808 Q39.7826 554.808 40.9603 553.248 Q42.1061 551.689 43.1565 546.978 L43.6021 544.973 Q44.9389 538.734 47.3897 536.124 Q49.8086 533.483 54.1691 533.483 Q59.1344 533.483 62.0308 537.429 Q64.9272 541.344 64.9272 548.219 Q64.9272 551.084 64.3543 554.203 Q63.8132 557.29 62.6992 560.728 L56.6518 560.728 Q58.3387 557.481 59.198 554.33 Q60.0256 551.179 60.0256 548.092 Q60.0256 543.954 58.6251 541.726 Q57.1929 539.498 54.6147 539.498 Q52.2276 539.498 50.9545 541.122 Q49.6813 542.713 48.5037 548.156 L48.0262 550.193 Q46.8804 555.635 44.5251 558.054 Q42.138 560.473 38.0002 560.473 Q32.9713 560.473 30.2341 556.909 Q27.4968 553.344 27.4968 546.787 Q27.4968 543.541 27.9743 540.676 Q28.4517 537.811 29.4065 535.392 Z" fill="#000000" fill-rule="evenodd" fill-opacity="1" /><path clip-path="url(#clip610)" d="M32.4621 510.343 Q32.4621 515.054 36.1542 517.791 Q39.8145 520.529 46.212 520.529 Q52.6095 520.529 56.3017 517.823 Q59.9619 515.086 59.9619 510.343 Q59.9619 505.665 56.2698 502.927 Q52.5777 500.19 46.212 500.19 Q39.8781 500.19 36.186 502.927 Q32.4621 505.665 32.4621 510.343 M27.4968 510.343 Q27.4968 502.705 32.4621 498.344 Q37.4273 493.984 46.212 493.984 Q54.9649 493.984 59.9619 498.344 Q64.9272 502.705 64.9272 510.343 Q64.9272 518.014 59.9619 522.375 Q54.9649 526.703 46.212 526.703 Q37.4273 526.703 32.4621 522.375 Q27.4968 518.014 27.4968 510.343 Z" fill="#000000" fill-rule="evenodd" fill-opacity="1" /><path clip-path="url(#clip610)" d="M49.9359 484.881 L28.3562 484.881 L28.3562 479.024 L49.7131 479.024 Q54.7739 479.024 57.3202 477.051 Q59.8346 475.077 59.8346 471.131 Q59.8346 466.388 56.8109 463.651 Q53.7872 460.882 48.5673 460.882 L28.3562 460.882 L28.3562 455.025 L64.0042 455.025 L64.0042 460.882 L58.5296 460.882 Q61.7762 463.014 63.3676 465.847 Q64.9272 468.648 64.9272 472.372 Q64.9272 478.515 61.1078 481.698 Q57.2883 484.881 49.9359 484.881 M27.4968 470.144 L27.4968 470.144 Z" fill="#000000" fill-rule="evenodd" fill-opacity="1" /><path clip-path="url(#clip610)" d="M33.8307 422.306 Q33.2578 423.292 33.0032 424.47 Q32.7167 425.616 32.7167 427.016 Q32.7167 431.982 35.9632 434.655 Q39.1779 437.297 45.2253 437.297 L64.0042 437.297 L64.0042 443.185 L28.3562 443.185 L28.3562 437.297 L33.8944 437.297 Q30.6479 435.451 29.0883 432.491 Q27.4968 429.531 27.4968 425.298 Q27.4968 424.693 27.5923 423.961 Q27.656 423.229 27.8151 422.337 L33.8307 422.306 Z" fill="#000000" fill-rule="evenodd" fill-opacity="1" /><path clip-path="url(#clip610)" d="M29.7248 391.941 L35.1993 391.941 Q33.8307 394.424 33.1623 396.938 Q32.4621 399.421 32.4621 401.967 Q32.4621 407.665 36.0905 410.816 Q39.6872 413.967 46.212 413.967 Q52.7369 413.967 56.3653 410.816 Q59.9619 407.665 59.9619 401.967 Q59.9619 399.421 59.2935 396.938 Q58.5933 394.424 57.2247 391.941 L62.6355 391.941 Q63.7814 394.392 64.3543 397.034 Q64.9272 399.644 64.9272 402.604 Q64.9272 410.656 59.8664 415.399 Q54.8057 420.141 46.212 420.141 Q37.491 420.141 32.4939 415.367 Q27.4968 410.561 27.4968 402.222 Q27.4968 399.516 28.0697 396.938 Q28.6108 394.36 29.7248 391.941 Z" fill="#000000" fill-rule="evenodd" fill-opacity="1" /><path clip-path="url(#clip610)" d="M44.7161 351.264 L47.5806 351.264 L47.5806 378.191 Q53.6281 377.809 56.8109 374.563 Q59.9619 371.285 59.9619 365.46 Q59.9619 362.086 59.1344 358.935 Q58.3069 355.752 56.6518 352.633 L62.1899 352.633 Q63.5267 355.784 64.227 359.094 Q64.9272 362.404 64.9272 365.81 Q64.9272 374.34 59.9619 379.337 Q54.9967 384.302 46.5303 384.302 Q37.7774 384.302 32.6531 379.592 Q27.4968 374.849 27.4968 366.829 Q27.4968 359.635 32.1438 355.466 Q36.7589 351.264 44.7161 351.264 M42.9973 357.121 Q38.1912 357.184 35.3266 359.826 Q32.4621 362.436 32.4621 366.765 Q32.4621 371.666 35.2312 374.627 Q38.0002 377.555 43.0292 378 L42.9973 357.121 Z" fill="#000000" fill-rule="evenodd" fill-opacity="1" /><path clip-path="url(#clip610)" d="M29.4065 318.927 L34.9447 318.927 Q33.6716 321.409 33.035 324.083 Q32.3984 326.756 32.3984 329.621 Q32.3984 333.981 33.7352 336.178 Q35.072 338.342 37.7456 338.342 Q39.7826 338.342 40.9603 336.782 Q42.1061 335.223 43.1565 330.512 L43.6021 328.507 Q44.9389 322.269 47.3897 319.659 Q49.8086 317.017 54.1691 317.017 Q59.1344 317.017 62.0308 320.964 Q64.9272 324.879 64.9272 331.753 Q64.9272 334.618 64.3543 337.737 Q63.8132 340.825 62.6992 344.262 L56.6518 344.262 Q58.3387 341.016 59.198 337.865 Q60.0256 334.714 60.0256 331.626 Q60.0256 327.488 58.6251 325.26 Q57.1929 323.032 54.6147 323.032 Q52.2276 323.032 50.9545 324.656 Q49.6813 326.247 48.5037 331.69 L48.0262 333.727 Q46.8804 339.17 44.5251 341.588 Q42.138 344.007 38.0002 344.007 Q32.9713 344.007 30.2341 340.443 Q27.4968 336.878 27.4968 330.321 Q27.4968 327.075 27.9743 324.21 Q28.4517 321.346 29.4065 318.927 Z" fill="#000000" fill-rule="evenodd" fill-opacity="1" /><polyline clip-path="url(#clip612)" style="stroke:#ff0000; stroke-linecap:butt; stroke-linejoin:round; stroke-width:4; stroke-opacity:1; fill:none" points="
  293.839,86.1857 315.589,598.259 315.589,598.259 315.589,598.259 319.602,605.407 392.841,735.212 466.079,865.017 558.772,994.822 591.73,1124.63 729.83,1254.43 
  1169.45,1319.34 1308.67,1332.32 1447.89,1345.3 1678.96,1358.28 1985.84,1371.26 2292.79,1384.24 
  "/>
<circle clip-path="url(#clip612)" cx="293.839" cy="86.1857" r="14" fill="#ff0000" fill-rule="evenodd" fill-opacity="1" stroke="#000000" stroke-opacity="1" stroke-width="3.2"/>
<circle clip-path="url(#clip612)" cx="315.589" cy="598.259" r="14" fill="#ff0000" fill-rule="evenodd" fill-opacity="1" stroke="#000000" stroke-opacity="1" stroke-width="3.2"/>
<circle clip-path="url(#clip612)" cx="315.589" cy="598.259" r="14" fill="#ff0000" fill-rule="evenodd" fill-opacity="1" stroke="#000000" stroke-opacity="1" stroke-width="3.2"/>
<circle clip-path="url(#clip612)" cx="315.589" cy="598.259" r="14" fill="#ff0000" fill-rule="evenodd" fill-opacity="1" stroke="#000000" stroke-opacity="1" stroke-width="3.2"/>
<circle clip-path="url(#clip612)" cx="319.602" cy="605.407" r="14" fill="#ff0000" fill-rule="evenodd" fill-opacity="1" stroke="#000000" stroke-opacity="1" stroke-width="3.2"/>
<circle clip-path="url(#clip612)" cx="392.841" cy="735.212" r="14" fill="#ff0000" fill-rule="evenodd" fill-opacity="1" stroke="#000000" stroke-opacity="1" stroke-width="3.2"/>
<circle clip-path="url(#clip612)" cx="466.079" cy="865.017" r="14" fill="#ff0000" fill-rule="evenodd" fill-opacity="1" stroke="#000000" stroke-opacity="1" stroke-width="3.2"/>
<circle clip-path="url(#clip612)" cx="558.772" cy="994.822" r="14" fill="#ff0000" fill-rule="evenodd" fill-opacity="1" stroke="#000000" stroke-opacity="1" stroke-width="3.2"/>
<circle clip-path="url(#clip612)" cx="591.73" cy="1124.63" r="14" fill="#ff0000" fill-rule="evenodd" fill-opacity="1" stroke="#000000" stroke-opacity="1" stroke-width="3.2"/>
<circle clip-path="url(#clip612)" cx="729.83" cy="1254.43" r="14" fill="#ff0000" fill-rule="evenodd" fill-opacity="1" stroke="#000000" stroke-opacity="1" stroke-width="3.2"/>
<circle clip-path="url(#clip612)" cx="1169.45" cy="1319.34" r="14" fill="#ff0000" fill-rule="evenodd" fill-opacity="1" stroke="#000000" stroke-opacity="1" stroke-width="3.2"/>
<circle clip-path="url(#clip612)" cx="1308.67" cy="1332.32" r="14" fill="#ff0000" fill-rule="evenodd" fill-opacity="1" stroke="#000000" stroke-opacity="1" stroke-width="3.2"/>
<circle clip-path="url(#clip612)" cx="1447.89" cy="1345.3" r="14" fill="#ff0000" fill-rule="evenodd" fill-opacity="1" stroke="#000000" stroke-opacity="1" stroke-width="3.2"/>
<circle clip-path="url(#clip612)" cx="1678.96" cy="1358.28" r="14" fill="#ff0000" fill-rule="evenodd" fill-opacity="1" stroke="#000000" stroke-opacity="1" stroke-width="3.2"/>
<circle clip-path="url(#clip612)" cx="1985.84" cy="1371.26" r="14" fill="#ff0000" fill-rule="evenodd" fill-opacity="1" stroke="#000000" stroke-opacity="1" stroke-width="3.2"/>
<circle clip-path="url(#clip612)" cx="2292.79" cy="1384.24" r="14" fill="#ff0000" fill-rule="evenodd" fill-opacity="1" stroke="#000000" stroke-opacity="1" stroke-width="3.2"/>
<path clip-path="url(#clip610)" d="
M1994.26 248.629 L2282.13 248.629 L2282.13 93.1086 L1994.26 93.1086  Z
  " fill="#ffffff" fill-rule="evenodd" fill-opacity="1"/>
<polyline clip-path="url(#clip610)" style="stroke:#000000; stroke-linecap:butt; stroke-linejoin:round; stroke-width:4; stroke-opacity:1; fill:none" points="
  1994.26,248.629 2282.13,248.629 2282.13,93.1086 1994.26,93.1086 1994.26,248.629 
  "/>
<polyline clip-path="url(#clip610)" style="stroke:#ff0000; stroke-linecap:butt; stroke-linejoin:round; stroke-width:4; stroke-opacity:1; fill:none" points="
  2017.81,144.949 2159.07,144.949 
  "/>
<path clip-path="url(#clip610)" d="M2196.45 164.636 Q2194.65 169.266 2192.93 170.678 Q2191.22 172.09 2188.35 172.09 L2184.95 172.09 L2184.95 168.525 L2187.45 168.525 Q2189.21 168.525 2190.18 167.692 Q2191.15 166.858 2192.33 163.756 L2193.1 161.812 L2182.61 136.303 L2187.12 136.303 L2195.23 156.581 L2203.33 136.303 L2207.84 136.303 L2196.45 164.636 Z" fill="#000000" fill-rule="evenodd" fill-opacity="1" /><path clip-path="url(#clip610)" d="M2215.13 158.293 L2222.77 158.293 L2222.77 131.928 L2214.46 133.595 L2214.46 129.335 L2222.73 127.669 L2227.4 127.669 L2227.4 158.293 L2235.04 158.293 L2235.04 162.229 L2215.13 162.229 L2215.13 158.293 Z" fill="#000000" fill-rule="evenodd" fill-opacity="1" /><circle clip-path="url(#clip610)" cx="2088.44" cy="196.789" r="23" fill="#ff0000" fill-rule="evenodd" fill-opacity="1" stroke="#000000" stroke-opacity="1" stroke-width="5.12"/>
<path clip-path="url(#clip610)" d="M2196.45 216.476 Q2194.65 221.106 2192.93 222.518 Q2191.22 223.93 2188.35 223.93 L2184.95 223.93 L2184.95 220.365 L2187.45 220.365 Q2189.21 220.365 2190.18 219.532 Q2191.15 218.698 2192.33 215.596 L2193.1 213.652 L2182.61 188.143 L2187.12 188.143 L2195.23 208.421 L2203.33 188.143 L2207.84 188.143 L2196.45 216.476 Z" fill="#000000" fill-rule="evenodd" fill-opacity="1" /><path clip-path="url(#clip610)" d="M2218.35 210.133 L2234.67 210.133 L2234.67 214.069 L2212.73 214.069 L2212.73 210.133 Q2215.39 207.379 2219.97 202.749 Q2224.58 198.096 2225.76 196.754 Q2228 194.231 2228.88 192.495 Q2229.79 190.735 2229.79 189.046 Q2229.79 186.291 2227.84 184.555 Q2225.92 182.819 2222.82 182.819 Q2220.62 182.819 2218.17 183.583 Q2215.73 184.347 2212.96 185.897 L2212.96 181.175 Q2215.78 180.041 2218.23 179.462 Q2220.69 178.884 2222.73 178.884 Q2228.1 178.884 2231.29 181.569 Q2234.48 184.254 2234.48 188.745 Q2234.48 190.874 2233.67 192.796 Q2232.89 194.694 2230.78 197.286 Q2230.2 197.958 2227.1 201.175 Q2224 204.37 2218.35 210.133 Z" fill="#000000" fill-rule="evenodd" fill-opacity="1" /></svg>
